# xmcd
#
# Track frame offsets: 
#        183
#        13203
#        26713
#        37635
#        48973
#        59583
#        73940
#        88393
#        98858
#        110680
#        119458
#        134145
#        143348
#        152415
#        162005
#        174705
#
# Disc length: 2505 seconds
#
# Revision: 2
# Processed by: cddbd v1.5.2PL0 Copyright (c) Steve Scherf et al.
# Submitted via: ExactAudioCopyFreeDBPlugin 1.0
#
DISCID=df09c710
DTITLE=The Dominoes - Have Mercy Baby
DYEAR=1900
DGENRE=
TTITLE0=Chicken Blues
TTITLE1=Do Something for Me
TTITLE2=Weeping Willow Blues
TTITLE3=Sixty Minute Man
TTITLE4=That's What You're Doing to Me
TTITLE5=I Am With You
TTITLE6=Don't Leave Me This Way
TTITLE7=Have Mercy Baby
TTITLE8=Pedal Pushin' Papa
TTITLE9=I'd Be Satisfied
TTITLE10=The Bells
TTITLE11=I Ain't Gonna Cry for You
TTITLE12=You Can't Keep a Good Man Down
TTITLE13=My Baby's 3-D
TTITLE14=I'm Gonna Move to the Outskirts...
TTITLE15=If I Never Get to Heaven
EXTD=
EXTT0=
EXTT1=
EXTT2=
EXTT3=
EXTT4=
EXTT5=
EXTT6=
EXTT7=
EXTT8=
EXTT9=
EXTT10=
EXTT11=
EXTT12=
EXTT13=
EXTT14=
EXTT15=
PLAYORDER=
